<svg width="80" height="80" viewBox="0 0 80 80" fill="none" xmlns="http://www.w3.org/2000/svg">
<rect width="80" height="80" rx="15" fill="black"/>
<path d="M64.774 54.9998C65.1775 54.2751 65.4282 53.4586 65.4282 52.7254V27.2742C65.4282 26.541 65.1777 25.7247 64.774 25L39.7139 40L64.774 54.9998Z" fill="#7F3A86"/>
<path d="M41.9411 69.4499L63.2018 56.7244C63.8142 56.3577 64.3709 55.7247 64.7744 55L39.7143 40L14.6543 55C15.0578 55.7247 15.6146 56.3579 16.2269 56.7244L37.4874 69.4499C38.7121 70.1832 40.7165 70.1832 41.9411 69.4499Z" fill="#662579"/>
<path d="M64.7744 24.9999C64.3709 24.2751 63.814 23.6421 63.2018 23.2755L41.9412 10.5499C40.7165 9.8167 38.7121 9.8167 37.4875 10.5499L16.2269 23.2755C15.002 24.0085 14 25.8081 14 27.2742V52.7256C14 53.4586 14.2506 54.2753 14.6543 55L39.7143 40L64.7744 24.9999Z" fill="#9A5196"/>
<path d="M39.7967 57.1431C30.2987 57.1431 22.5713 49.4529 22.5713 40.0003C22.5713 30.5477 30.2987 22.8574 39.7967 22.8574C45.8123 22.8574 51.4301 26.0196 54.5406 31.1327L47.1638 35.5571C45.6053 33.006 42.7997 31.4289 39.7967 31.4289C35.0475 31.4289 31.1841 35.274 31.1841 40.0003C31.1841 44.7266 35.0475 48.5717 39.7967 48.5717C42.7918 48.5717 45.5901 47.0034 47.1514 44.4643L54.5438 48.8629C51.4339 53.979 45.8143 57.1431 39.7967 57.1431Z" fill="white"/>
<path fill-rule="evenodd" clip-rule="evenodd" d="M59.0004 33.5713V35.7086H54.7142V33.5713H52.5718V35.7086H50.4287V37.857H52.5718V42.1316H50.4287V44.2856H52.5718V46.4284H54.7142L54.7144 44.2856H59.0004V46.4284H61.1428V44.2856H63.2859V42.1427H61.1428V37.857H63.2859V35.7086H61.1428V33.5713H59.0004ZM59.0004 42.1427V37.857H54.7142V42.1316L59.0004 42.1427Z" fill="white"/>
</svg>
