<svg width="80" height="80" viewBox="0 0 80 80" fill="none" xmlns="http://www.w3.org/2000/svg">
<rect width="80" height="80" rx="15" fill="black"/>
<path d="M39.5938 25.8262C51.9466 16.2364 45.6068 10 45.6068 10C46.5503 19.9138 35.4 22.2547 32.4111 29.0673C30.3716 33.7159 33.8078 37.7862 39.5897 42.9164C39.0786 41.7801 38.2902 40.6761 37.4921 39.5584C34.7698 35.7462 31.9341 31.7748 39.5938 25.8262Z" fill="#E76F00"/>
<path d="M41.5658 45.0196C41.5658 45.0196 45.2821 42.0213 42.3391 38.6892C32.3626 27.3849 53.2505 22.2549 53.2505 22.2549C40.4975 28.3986 42.4014 32.0453 45.6069 36.4756C49.0389 41.2261 41.5658 45.0196 41.5658 45.0196Z" fill="#E76F00"/>
<path d="M52.5064 53.9605C63.9539 48.1109 58.6611 42.4897 54.9668 43.247C54.0612 43.4322 53.6575 43.5929 53.6575 43.5929C53.6575 43.5929 53.9937 43.075 54.6357 42.8508C61.9443 40.3242 67.565 50.303 52.2764 54.2553C52.2764 54.2553 52.4536 54.0997 52.5064 53.9605Z" fill="#5382A1"/>
<path d="M28.6873 46.556C21.525 45.6155 32.6145 43.0254 32.6145 43.0254C32.6145 43.0254 28.308 42.7398 23.0115 45.2574C16.7487 48.2366 38.5031 49.5915 49.7642 46.679C50.935 45.8928 52.5531 45.2115 52.5531 45.2115C52.5531 45.2115 47.9449 46.0207 43.3556 46.4015C37.7402 46.8641 31.7115 46.9543 28.6873 46.556Z" fill="#5382A1"/>
<path d="M31.4118 52.1428C27.4177 51.7367 30.0329 49.833 30.0329 49.833C19.6979 53.2061 35.7832 57.0313 50.2247 52.8786C48.6896 52.3464 47.7135 51.3731 47.7135 51.3731C40.6554 52.7096 36.5767 52.6669 31.4118 52.1428Z" fill="#5382A1"/>
<path d="M33.152 58.1858C29.161 57.7347 31.4926 56.4014 31.4926 56.4014C22.1109 58.9791 37.199 64.3047 49.1435 59.2707C47.1871 58.5226 45.7863 57.6589 45.7863 57.6589C40.4581 58.6504 37.9869 58.7282 33.152 58.1858Z" fill="#5382A1"/>
<path d="M58.1352 61.2604C58.1352 61.2604 59.8606 62.6584 56.2349 63.7399C49.3403 65.7938 27.5393 66.414 21.483 63.8219C19.306 62.8905 23.3886 61.5981 24.6728 61.3268C26.0121 61.0412 26.7775 61.0945 26.7775 61.0945C24.3564 59.4173 11.1284 64.3877 20.0583 65.8112C44.4116 69.6949 64.4521 64.0622 58.1352 61.2604Z" fill="#5382A1"/>
<path d="M62.0004 64.3145C61.6009 69.4272 44.7273 70.5027 33.7392 69.811C26.5709 69.359 25.1343 68.2293 25.1133 68.2128C31.9739 69.325 43.5408 69.5275 52.9194 67.7918C61.2322 66.2526 62.0004 64.3145 62.0004 64.3145Z" fill="#5382A1"/>
</svg>
