<svg width="80" height="80" viewBox="0 0 80 80" fill="none" xmlns="http://www.w3.org/2000/svg">
<rect width="80" height="80" rx="15" fill="black"/>
<path d="M42.3673 10.6401C40.8464 9.78471 38.8636 9.78855 37.3414 10.6401C29.7177 14.8477 22.0938 19.0566 14.4687 23.2623C12.985 24.0429 11.9842 25.6364 12.0002 27.2903V52.7132C11.9895 54.3994 13.0418 56.0082 14.5638 56.7782C16.754 57.9435 18.8819 59.227 21.1117 60.3148C23.6873 61.5805 26.9098 61.8604 29.517 60.5404C31.6333 59.4465 32.5733 57.0132 32.5705 54.7772C32.5876 46.387 32.5733 37.9967 32.5771 29.6063C32.6275 29.2334 32.3475 28.8349 31.9408 28.8439C30.9665 28.8284 29.9909 28.8349 29.0166 28.8413C28.6485 28.8066 28.2892 29.1124 28.317 29.4824C28.304 37.8186 28.3196 46.1573 28.3091 54.4947C28.3303 55.648 27.5512 56.7563 26.4399 57.1459C23.8731 58.0457 16.5468 53.2883 16.5468 53.2883C16.2779 53.1638 16.1072 52.8722 16.1335 52.5825C16.1335 44.1949 16.1348 35.8071 16.1335 27.4208C16.0965 27.0827 16.3049 26.7782 16.6154 26.6401C24.2141 22.4573 31.8088 18.264 39.4074 14.0786C39.6714 13.9025 40.0393 13.903 40.3026 14.0799C47.9013 18.264 55.4973 22.4535 63.0973 26.6365C63.4088 26.7743 63.6083 27.0839 63.5766 27.4208C63.5753 35.8071 63.5791 44.1949 63.574 52.5814C63.5965 52.8782 63.4431 53.1657 63.166 53.296C55.6383 57.4562 48.0249 61.4822 40.5653 65.7632C40.2398 65.9498 39.8711 66.1613 39.5064 65.9556C37.5448 64.8705 35.6069 63.7431 33.6517 62.6475C33.4392 62.5148 33.1685 62.4578 32.9468 62.6063C32.0702 63.0683 31.2457 63.4425 30.239 63.841C28.8253 64.4008 29.0511 64.6296 30.3262 65.3725C32.6127 66.6666 34.903 67.9555 37.1895 69.2509C38.6948 70.1903 40.7172 70.2572 42.2709 69.3891C49.8959 65.1868 57.5185 60.9795 65.145 56.7771C66.6629 56.0029 67.7205 54.4005 67.7098 52.713V27.2903C67.7246 25.67 66.7621 24.1049 65.3231 23.3127C57.6728 19.0846 50.0189 14.8657 42.3673 10.6401Z" fill="#8CC84B"/>
<path d="M53.8726 29.728C50.8799 28.1268 47.3196 28.0416 43.9939 28.2509C41.5913 28.4883 39.0644 29.1513 37.3141 30.8738C35.5187 32.6052 35.1279 35.4012 35.9807 37.6615C36.5918 39.2588 38.13 40.2974 39.7207 40.8469C41.7698 41.5703 43.9219 41.794 46.0747 42.0177C48.0383 42.2217 50.0025 42.4259 51.8898 43.0094C52.6607 43.2649 53.5585 43.6557 53.7946 44.4946C54.0127 45.4881 53.7736 46.6429 52.9671 47.3331C50.4053 49.3609 43.2791 49.0501 40.748 47.4541C39.7246 46.7742 39.2836 45.5706 39.1043 44.4235C39.0844 44.0661 38.7966 43.7382 38.4086 43.7654C37.4368 43.7539 36.4651 43.7564 35.4934 43.7641C35.1545 43.7356 34.802 43.9769 34.7833 44.323C34.5836 49.5766 39.4083 51.8669 43.9348 52.3711C46.5208 52.6176 49.1636 52.6034 51.7102 52.0484C53.6245 51.6126 55.5439 50.8099 56.8617 49.3354C58.4867 47.5433 58.8062 44.8752 58.0774 42.643C57.5203 40.9774 55.9281 39.9089 54.3005 39.3593C52.0871 38.6003 49.464 38.1923 47.4593 38.0014C44.5455 37.7239 41.0829 37.8372 40.2581 35.9224C39.9292 34.9197 40.2091 33.6747 41.1304 33.058C43.5682 31.4043 48.5296 31.624 51.0541 32.8593C52.2133 33.4398 52.885 34.6321 53.1623 35.8358C53.2137 36.1894 53.4516 36.5584 53.8608 36.5429C54.8259 36.5622 55.791 36.5481 56.7558 36.5493C57.0873 36.5725 57.4503 36.3854 57.515 36.046C57.474 33.5303 56.1895 30.955 53.8726 29.728Z" fill="#8CC84B"/>
</svg>
