<svg width="80" height="80" viewBox="0 0 80 80" fill="none" xmlns="http://www.w3.org/2000/svg">
<rect width="80" height="80" rx="15" fill="white"/>
<path d="M40 70C56.5685 70 70 56.5685 70 40C70 23.4315 56.5685 10 40 10C23.4315 10 10 23.4315 10 40C10 56.5685 23.4315 70 40 70Z" fill="#8892BF"/>
<path d="M36.6551 27.1426H40.2551L39.2377 32.5516H42.4725C44.2466 32.5895 45.5681 32.9859 46.4379 33.7411C47.3248 34.496 47.5858 35.9313 47.2207 38.0457L45.4727 47.4759H41.8204L43.4899 38.4704C43.6637 37.5262 43.6117 36.8561 43.3335 36.4597C43.0554 36.0633 42.4554 35.8651 41.5335 35.8651L38.6377 35.8368L36.4984 47.4759H32.8984L36.6551 27.1426Z" fill="white"/>
<path fill-rule="evenodd" clip-rule="evenodd" d="M20.1593 32.5518H27.1507C29.2027 32.5704 30.6899 33.2126 31.6117 34.4773C32.5336 35.7423 32.8379 37.4696 32.5248 39.6598C32.4033 40.6608 32.1335 41.6422 31.7161 42.6052C31.316 43.568 30.7597 44.4363 30.0466 45.2105C29.1768 46.1921 28.2464 46.815 27.2551 47.0797C26.2638 47.3441 25.2375 47.4761 24.1767 47.4761H21.0462L20.0549 52.8568H16.4287L20.1593 32.5518ZM21.6462 44.276L23.2063 35.8085H23.7333C23.9247 35.8085 24.1246 35.7988 24.3333 35.7802C25.7248 35.7613 26.881 35.903 27.803 36.2049C28.742 36.5068 29.0551 37.6492 28.742 39.6315C28.3597 41.9917 27.6114 43.3698 26.4986 43.7662C25.3856 44.144 23.9941 44.3231 22.3245 44.3043H21.9593C21.8549 44.3043 21.7506 44.2946 21.6462 44.276Z" fill="white"/>
<path fill-rule="evenodd" clip-rule="evenodd" d="M58.0784 32.5518H51.0869L47.3564 52.8568H50.9826L51.9741 47.4761H55.1046C56.1653 47.4761 57.1915 47.3441 58.1828 47.0797C59.1743 46.815 60.1045 46.1921 60.9743 45.2105C61.6874 44.4363 62.2437 43.568 62.6438 42.6052C63.0612 41.6422 63.331 40.6608 63.4525 39.6598C63.7656 37.4696 63.4615 35.7423 62.5394 34.4773C61.6176 33.2126 60.1307 32.5704 58.0784 32.5518ZM54.1341 35.8085L52.5741 44.276C52.6784 44.2946 52.7828 44.3043 52.8872 44.3043H53.2523C54.922 44.3231 56.3134 44.144 57.4264 43.7662C58.5392 43.3698 59.2874 41.9917 59.6699 39.6315C59.983 37.6492 59.6699 36.5068 58.7307 36.2049C57.8089 35.903 56.6526 35.7613 55.261 35.7802C55.0523 35.7988 54.8526 35.8085 54.661 35.8085H54.1341Z" fill="white"/>
</svg>
