<svg width="80" height="80" viewBox="0 0 80 80" fill="none" xmlns="http://www.w3.org/2000/svg">
<rect width="80" height="80" rx="15" fill="white"/>
<path fill-rule="evenodd" clip-rule="evenodd" d="M43.971 35.5829C43.2643 35.7807 42.5476 35.9811 41.7181 36.2065C41.313 36.3213 41.2207 36.3473 40.8436 35.8889C40.3914 35.3489 40.0597 34.9996 39.4263 34.6817C37.5266 33.697 35.687 33.9829 33.9682 35.1584C31.9177 36.556 30.8622 38.6208 30.8924 41.1938C30.9224 43.7352 32.5811 45.8318 34.9634 46.1811C37.0139 46.4671 38.7328 45.7047 40.0897 44.0847C40.361 43.7354 40.6025 43.3538 40.904 42.9093H35.084C34.4506 42.9093 34.2999 42.4964 34.511 41.9562C34.9031 40.9714 35.6268 39.3198 36.0489 38.4938C36.1394 38.3031 36.3506 37.9855 36.8028 37.9855H46.5069C46.9428 36.5305 47.6501 35.1557 48.5936 33.8549C50.795 30.8052 53.4487 29.2169 57.0371 28.5499C60.1131 27.978 63.0079 28.2957 65.6314 30.1699C68.0138 31.8854 69.4913 34.2042 69.8833 37.2539C70.3959 41.5422 69.2199 45.0366 66.4155 48.0226C64.4252 50.1509 61.9826 51.4852 59.1782 52.0887C58.6432 52.193 58.1083 52.2425 57.5818 52.2912C57.3071 52.3167 57.0347 52.3418 56.7658 52.3747C54.0215 52.3111 51.5188 51.4852 49.4077 49.5792C47.9233 48.2273 46.9008 46.5661 46.3925 44.6322C46.0398 45.3826 45.6182 46.1011 45.1258 46.7847C42.9545 49.8025 40.1199 51.6768 36.5315 52.1851C33.5761 52.598 30.8321 51.9944 28.4196 50.0885C26.1881 48.3095 24.9216 45.9588 24.5899 43.0364C24.1978 39.5738 25.1628 36.4608 27.1531 33.7289C29.2942 30.7746 32.1288 28.9004 35.5966 28.2332C38.4313 27.6932 41.1451 28.0427 43.5879 29.7899C45.186 30.9016 46.332 32.4265 47.0859 34.2689C47.2668 34.5548 47.1461 34.7136 46.7842 34.8089C45.7275 35.0916 44.8571 35.3352 43.971 35.5829ZM63.9217 39.2013C63.9277 39.3079 63.9339 39.4204 63.9427 39.541C63.792 42.2729 62.4952 44.306 60.1131 45.6083C58.5148 46.466 56.8562 46.5614 55.1977 45.799C53.0265 44.7824 51.8805 42.2729 52.4233 39.7951C53.0869 36.8091 54.896 34.9349 57.7005 34.2677C60.5653 33.5689 63.3096 35.3478 63.8524 38.4927C63.8949 38.7177 63.9075 38.9425 63.9217 39.2013Z" fill="#00ACD7"/>
<path d="M14.5839 35.2215C14.5236 35.3168 14.5537 35.3803 14.6743 35.3803L23.6551 35.4122C23.7456 35.4122 23.8964 35.3168 23.9567 35.2215L24.4693 34.3956C24.5296 34.3003 24.4995 34.2051 24.3789 34.2051H15.5488C15.4282 34.2051 15.2774 34.2686 15.2171 34.3639L14.5839 35.2215Z" fill="#00ACD7"/>
<path d="M10.0302 38.1444C9.96984 38.2396 10 38.3032 10.1206 38.3032L22.4487 38.2715C22.5693 38.2715 22.6899 38.2079 22.7201 38.0808L22.9613 37.3184C22.9915 37.2232 22.9311 37.1279 22.8105 37.1279H10.9951C10.8745 37.1279 10.7237 37.1913 10.6634 37.2867L10.0302 38.1444Z" fill="#00ACD7"/>
<path d="M17.328 41.0355C17.2677 41.1308 17.2978 41.226 17.4185 41.226L22.0569 41.2579C22.1473 41.2579 22.268 41.1627 22.268 41.0355L22.3283 40.2732C22.3283 40.146 22.268 40.0508 22.1473 40.0508H18.0517C17.9311 40.0508 17.8105 40.146 17.7502 40.2413L17.328 41.0355Z" fill="#00ACD7"/>
</svg>
