<svg width="80" height="80" viewBox="0 0 80 80" fill="none" xmlns="http://www.w3.org/2000/svg">
<rect width="80" height="80" rx="15" fill="white"/>
<path fill-rule="evenodd" clip-rule="evenodd" d="M33.6066 10C28.8985 10 25.082 13.6954 25.082 18.254V23.9683H39.8361V25.5556H18.5246C13.8166 25.5556 10 29.2511 10 33.8096V46.1907C10 50.7492 13.8166 54.4446 18.5246 54.4446H23.4426V47.4605C23.4426 42.902 27.2593 39.2064 31.9673 39.2064H47.7049C51.6887 39.2064 54.918 36.0795 54.918 32.2224V18.254C54.918 13.6954 51.1016 10 46.3935 10H33.6066ZM31.6395 20.1588C33.2691 20.1588 34.5902 18.8796 34.5902 17.3016C34.5902 15.7237 33.2691 14.4445 31.6395 14.4445C30.0096 14.4445 28.6885 15.7237 28.6885 17.3016C28.6885 18.8796 30.0096 20.1588 31.6395 20.1588Z" fill="url(#paint0_linear_2317_708)"/>
<path fill-rule="evenodd" clip-rule="evenodd" d="M46.3935 70.0003C51.1015 70.0003 54.9182 66.3049 54.9182 61.7464V56.032H40.1639V54.4448H61.4756C66.1836 54.4448 70.0001 50.7492 70.0001 46.1907V33.8096C70.0001 29.2511 66.1836 25.5557 61.4756 25.5557H56.5575V32.5397C56.5575 37.0985 52.7408 40.7938 48.033 40.7938H32.2951C28.3113 40.7938 25.082 43.9207 25.082 47.7779V61.7464C25.082 66.3049 28.8987 70.0003 33.6066 70.0003H46.3935ZM48.3608 59.8416C46.731 59.8416 45.4099 61.1207 45.4099 62.6987C45.4099 64.2767 46.731 65.5557 48.3608 65.5557C49.9905 65.5557 51.3115 64.2767 51.3115 62.6987C51.3115 61.1207 49.9905 59.8416 48.3608 59.8416Z" fill="url(#paint1_linear_2317_708)"/>
<defs>
<linearGradient id="paint0_linear_2317_708" x1="32.4591" y1="10" x2="32.4591" y2="54.4446" gradientUnits="userSpaceOnUse">
<stop stop-color="#327EBD"/>
<stop offset="1" stop-color="#1565A7"/>
</linearGradient>
<linearGradient id="paint1_linear_2317_708" x1="47.5412" y1="25.5557" x2="47.5412" y2="70.0003" gradientUnits="userSpaceOnUse">
<stop stop-color="#FFDA4B"/>
<stop offset="1" stop-color="#F9C600"/>
</linearGradient>
</defs>
</svg>
